<svg width="40" height="40" viewBox="0 0 40 40" fill="none" xmlns="http://www.w3.org/2000/svg">
<g clip-path="url(#clip0)">
<path d="M39.5747 16.255L20.614 2.37237C20.2484 2.10472 19.7517 2.10472 19.3862 2.37237L0.425436 16.255C-0.0376892 16.5941 -0.138314 17.2444 0.200827 17.7075C0.539967 18.1707 1.19036 18.2711 1.65341 17.9321L20.0001 4.49901L38.3467 17.9321C38.5317 18.0676 38.7467 18.1328 38.9598 18.1328C39.2798 18.1328 39.5956 17.9856 39.7992 17.7075C40.1384 17.2444 40.0378 16.5941 39.5747 16.255Z" fill="#262625"/>
<path d="M34.5504 18.1675C33.9765 18.1675 33.5111 18.6328 33.5111 19.2068V35.7497H25.1969V26.7195C25.1969 23.8539 22.8655 21.5226 20 21.5226C17.1346 21.5226 14.8032 23.854 14.8032 26.7195V35.7498H6.48887V19.2069C6.48887 18.6329 6.02348 18.1676 5.44957 18.1676C4.87567 18.1676 4.41028 18.6329 4.41028 19.2069V36.7891C4.41028 37.3631 4.87567 37.8284 5.44957 37.8284H15.8425C16.389 37.8284 16.8363 37.4062 16.8777 36.8701C16.8802 36.8458 16.8818 36.8192 16.8818 36.7891V26.7196C16.8818 25.0001 18.2806 23.6013 20 23.6013C21.7195 23.6013 23.1183 25.0002 23.1183 26.7196V36.7891C23.1183 36.819 23.1199 36.8451 23.1224 36.8691C23.1633 37.4056 23.6107 37.8284 24.1576 37.8284H34.5505C35.1245 37.8284 35.5898 37.3631 35.5898 36.7891V19.2069C35.5897 18.6328 35.1244 18.1675 34.5504 18.1675Z" fill="#262625"/>
</g>
<defs>
<clipPath id="clip0">
<rect width="40" height="40" fill="white"/>
</clipPath>
</defs>
</svg>
